<?xml version="1.0" encoding="UTF-8" standalone="no"?>
<svg
   xmlns:dc="http://purl.org/dc/elements/1.1/"
   xmlns:cc="http://creativecommons.org/ns#"
   xmlns:rdf="http://www.w3.org/1999/02/22-rdf-syntax-ns#"
   xmlns:svg="http://www.w3.org/2000/svg"
   xmlns="http://www.w3.org/2000/svg"
   xmlns:xlink="http://www.w3.org/1999/xlink"
   xmlns:sodipodi="http://sodipodi.sourceforge.net/DTD/sodipodi-0.dtd"
   xmlns:inkscape="http://www.inkscape.org/namespaces/inkscape"
   width="19"
   height="29"
   viewBox="0 0 19 29"
   version="1.1"
   id="svg2"
   inkscape:version="0.91 r13725"
   sodipodi:docname="btc.svg">
  <metadata
     id="metadata17">
    <rdf:RDF>
      <cc:Work
         rdf:about="">
        <dc:format>image/svg+xml</dc:format>
        <dc:type
           rdf:resource="http://purl.org/dc/dcmitype/StillImage" />
      </cc:Work>
    </rdf:RDF>
  </metadata>
  <sodipodi:namedview
     pagecolor="#ffffff"
     bordercolor="#666666"
     borderopacity="1"
     objecttolerance="10"
     gridtolerance="10"
     guidetolerance="10"
     inkscape:pageopacity="0"
     inkscape:pageshadow="2"
     inkscape:window-width="813"
     inkscape:window-height="480"
     id="namedview15"
     showgrid="false"
     inkscape:zoom="8.137931"
     inkscape:cx="9.5"
     inkscape:cy="14.5"
     inkscape:window-x="746"
     inkscape:window-y="147"
     inkscape:window-maximized="0"
     inkscape:current-layer="svg2" />
  <title
     id="title4">Vector</title>
  <desc
     id="desc6">Created using Figma</desc>
  <g
     id="Canvas"
     transform="translate(-2778 -1530)">
    <g
       id="Vector">
      <use
         xlink:href="#path0_fill"
         transform="translate(2778 1530)"
         fill="#006DF0"
         id="use10"
         style="fill:#ffffff;fill-opacity:1" />
    </g>
  </g>
  <defs
     id="defs12">
    <path
       id="path0_fill"
       d="M 15.2 4.26119L 15.2 0L 11.4 0L 11.4 3.625L 7.6 3.625L 7.6 0L 3.8 0L 3.8 3.625L 0 3.625L 0 12.6875L 0 16.3125L 0 25.375L 3.8 25.375L 3.8 29L 7.6 29L 7.6 25.375L 11.4 25.375L 11.4 29L 15.2 29L 15.2 24.7388C 17.4382 23.7166 19 21.5524 19 19.0312C 19 17.255 18.2267 15.6527 16.9898 14.5C 18.2267 13.3473 19 11.745 19 9.96875C 19 7.44756 17.4382 5.28344 15.2 4.26119ZM 12.35 21.75L 3.8 21.75L 3.8 16.3125L 12.35 16.3125C 13.9213 16.3125 15.2 17.5323 15.2 19.0312C 15.2 20.5302 13.9213 21.75 12.35 21.75ZM 12.35 12.6875L 3.8 12.6875L 3.8 7.25L 12.35 7.25C 13.9213 7.25 15.2 8.46981 15.2 9.96875C 15.2 11.4677 13.9213 12.6875 12.35 12.6875Z" />
  </defs>
</svg>
