<?xml version="1.0" encoding="UTF-8" standalone="no"?>
<!-- Created with Inkscape (http://www.inkscape.org/) -->

<svg
   xmlns:dc="http://purl.org/dc/elements/1.1/"
   xmlns:cc="http://creativecommons.org/ns#"
   xmlns:rdf="http://www.w3.org/1999/02/22-rdf-syntax-ns#"
   xmlns:svg="http://www.w3.org/2000/svg"
   xmlns="http://www.w3.org/2000/svg"
   xmlns:sodipodi="http://sodipodi.sourceforge.net/DTD/sodipodi-0.dtd"
   xmlns:inkscape="http://www.inkscape.org/namespaces/inkscape"
   width="210mm"
   height="297mm"
   viewBox="0 0 744.09448819 1052.3622047"
   id="svg2"
   version="1.1"
   inkscape:version="0.91 r13725"
   sodipodi:docname="eos.svg">
  <defs
     id="defs4" />
  <sodipodi:namedview
     id="base"
     pagecolor="#ffffff"
     bordercolor="#666666"
     borderopacity="1.0"
     inkscape:pageopacity="0.0"
     inkscape:pageshadow="2"
     inkscape:zoom="0.175"
     inkscape:cx="-524.99734"
     inkscape:cy="566.13739"
     inkscape:document-units="px"
     inkscape:current-layer="layer1"
     showgrid="false"
     inkscape:window-width="1920"
     inkscape:window-height="1056"
     inkscape:window-x="0"
     inkscape:window-y="24"
     inkscape:window-maximized="1" />
  <metadata
     id="metadata7">
    <rdf:RDF>
      <cc:Work
         rdf:about="">
        <dc:format>image/svg+xml</dc:format>
        <dc:type
           rdf:resource="http://purl.org/dc/dcmitype/StillImage" />
        <dc:title></dc:title>
      </cc:Work>
    </rdf:RDF>
  </metadata>
  <g
     inkscape:label="Layer 1"
     inkscape:groupmode="layer"
     id="layer1">
    <path
       style="fill:#000000;fill-opacity:0.66666669"
       d="m 373.40351,1002.257 -46.92843,-164.3515 93.91512,0 z M 66.410164,839.26006 280.39953,837.9055 330.12388,997.29024 Z M 417.85561,998.64476 466.4705,837.9055 682.30675,838.52921 Z M 44.689133,801.65357 189.77966,546.35011 272.01177,798.88009 Z M 319.54535,794.52233 232.13671,516.38904 373.42183,270.76479 514.94652,513.6799 427.31994,794.52222 Z M 473.01426,801.75739 551.8614,545.2969 698.55863,799.90587 Z M 26.979402,724.19972 110.99307,349.60168 158.84154,495.63605 Z M 708.6681,723.42975 577.00655,497.83828 623.42378,351.78402 Z M 204.0829,463.40157 154.44957,302.10243 344.00396,31.867678 l 1.3546,190.524162 z m 336.61414,-2 -141.19029,-242.07473 0,-189.573642 190.8508,270.166122 z"
       id="path4201"
       inkscape:connector-curvature="0"
       sodipodi:nodetypes="cccccccccccccccccccccccccccccccccccccccccccc" />
  </g>
</svg>
