<?xml version="1.0" encoding="UTF-8" standalone="no"?>
<!-- Generated by IcoMoon.io -->

<svg
   xmlns:dc="http://purl.org/dc/elements/1.1/"
   xmlns:cc="http://creativecommons.org/ns#"
   xmlns:rdf="http://www.w3.org/1999/02/22-rdf-syntax-ns#"
   xmlns:svg="http://www.w3.org/2000/svg"
   xmlns="http://www.w3.org/2000/svg"
   xmlns:sodipodi="http://sodipodi.sourceforge.net/DTD/sodipodi-0.dtd"
   xmlns:inkscape="http://www.inkscape.org/namespaces/inkscape"
   version="1.1"
   width="1024"
   height="1024"
   viewBox="0 0 1024 1024"
   id="svg9"
   sodipodi:docname="eosish-logo.svg"
   inkscape:version="0.92.3 (unknown)">
  <metadata
     id="metadata15">
    <rdf:RDF>
      <cc:Work
         rdf:about="">
        <dc:format>image/svg+xml</dc:format>
        <dc:type
           rdf:resource="http://purl.org/dc/dcmitype/StillImage" />
      </cc:Work>
    </rdf:RDF>
  </metadata>
  <defs
     id="defs13" />
  <sodipodi:namedview
     pagecolor="#ffffff"
     bordercolor="#666666"
     borderopacity="1"
     objecttolerance="10"
     gridtolerance="10"
     guidetolerance="10"
     inkscape:pageopacity="0"
     inkscape:pageshadow="2"
     inkscape:window-width="777"
     inkscape:window-height="480"
     id="namedview11"
     showgrid="false"
     inkscape:zoom="0.23046875"
     inkscape:cx="512"
     inkscape:cy="512"
     inkscape:window-x="0"
     inkscape:window-y="27"
     inkscape:window-maximized="0"
     inkscape:current-layer="svg9" />
  <title
     id="title2" />
  <g
     id="icomoon-ignore"
     style="fill:#ffffff;fill-opacity:1" />
  <path
     fill="#556577"
     opacity="0.97"
     d="M706.042 830.726h-412.454c-30.541 0-33.784 12.303-7.198 27.34l169.304 95.78c26.58 15.037 69.905 14.737 96.275-0.669l161.654-94.441c26.37-15.407 22.96-28.009-7.582-28.009z"
     id="path5"
     style="fill:#ffffff;fill-opacity:1" />
  <path
     fill="#556577"
     opacity="0.97"
     d="M724.559 348.43c-6.709-29.795-27.138-74.201-45.403-98.681l-141.037-189.063c-18.259-24.48-48.047-24.404-66.18 0.168l-139.321 188.735c-18.141 24.571-38.932 68.942-46.206 98.605l-98.59 401.923c-7.274 29.662 11.759 53.933 42.3 53.933h541.488c30.542 0 50.042-24.376 43.332-54.177z"
     id="path7"
     style="fill:#ffffff;fill-opacity:1" />
</svg>
