<svg width="24" height="38" viewBox="0 0 24 38" version="1.1" xmlns="http://www.w3.org/2000/svg" xmlns:xlink="http://www.w3.org/1999/xlink">
<title>Vector</title>
<desc>Created using Figma</desc>
<g id="Canvas" transform="translate(8376 1370)">
<g id="Vector">
<mask id="mask0_outline_ins">
<use xlink:href="#path0_fill" fill="white" transform="translate(-8376 -1370)"/>
<use xlink:href="#path1_fill" fill="white" transform="translate(-8376 -1370)"/>
</mask>
<g mask="url(#mask0_outline_ins)">
<use xlink:href="#path2_stroke_2x" transform="translate(-8376 -1370)" fill="#444444"/>
</g>
</g>
</g>
<defs>
<path id="path0_fill" d="M 0 19.6129L 12.062 0L 24 19.6129L 12.062 26.7226L 0 19.6129Z"/>
<path id="path1_fill" d="M 12.062 28.4387L 23.7522 21.6151L 12.062 38L 0.371773 21.6151L 12.062 28.4387Z"/>
<path id="path2_stroke_2x" d="M 11.8644 13.9644L -0.197598 19.1536L 0.197598 20.0722L 12.2596 14.883L 11.8644 13.9644ZM 11.8626 14.8822L 23.8007 20.0715L 24.1993 19.1543L 12.2613 13.9651L 11.8626 14.8822ZM 12.562 14.4237L 12.562 0L 11.562 0L 11.562 14.4237L 12.562 14.4237ZM 11.562 14.4237L 11.562 26.7226L 12.562 26.7226L 12.562 14.4237L 11.562 14.4237ZM 11.562 28.4387L 11.562 38L 12.562 38L 12.562 28.4387L 11.562 28.4387ZM 12.062 0L 12.9162 -0.519939L 12.0664 -1.91607L 11.2102 -0.523861L 12.062 0ZM 0 19.6129L -0.851804 19.089L -1.38559 19.957L -0.507784 20.4744L 0 19.6129ZM 12.062 26.7226L 11.5542 27.5841L 12.0646 27.8849L 12.5736 27.5818L 12.062 26.7226ZM 24 19.6129L 24.5117 20.4721L 25.3792 19.9554L 24.8542 19.093L 24 19.6129ZM 23.7522 21.6151L 24.5662 22.1959L 23.248 20.7514L 23.7522 21.6151ZM 12.062 28.4387L 11.5578 29.3023L 12.062 29.5966L 12.5661 29.3023L 12.062 28.4387ZM 0.371773 21.6151L 0.875885 20.7514L -0.442274 22.1959L 0.371773 21.6151ZM 12.062 38L 11.2479 38.5808L 12.062 39.7218L 12.876 38.5808L 12.062 38ZM 11.2102 -0.523861L -0.851804 19.089L 0.851804 20.1368L 12.9138 0.523861L 11.2102 -0.523861ZM -0.507784 20.4744L 11.5542 27.5841L 12.5697 25.8611L 0.507784 18.7514L -0.507784 20.4744ZM 12.5736 27.5818L 24.5117 20.4721L 23.4883 18.7537L 11.5503 25.8634L 12.5736 27.5818ZM 24.8542 19.093L 12.9162 -0.519939L 11.2078 0.519939L 23.1458 20.1328L 24.8542 19.093ZM 23.248 20.7514L 11.5578 27.5751L 12.5661 29.3023L 24.2563 22.4787L 23.248 20.7514ZM 12.5661 27.5751L 0.875885 20.7514L -0.13234 22.4787L 11.5578 29.3023L 12.5661 27.5751ZM -0.442274 22.1959L 11.2479 38.5808L 12.876 37.4192L 1.18582 21.0343L -0.442274 22.1959ZM 12.876 38.5808L 24.5662 22.1959L 22.9381 21.0343L 11.2479 37.4192L 12.876 38.5808Z"/>
</defs>
</svg>
