<?xml version="1.0" encoding="UTF-8" standalone="no"?>
<!-- Generated by IcoMoon.io -->

<svg
   xmlns:dc="http://purl.org/dc/elements/1.1/"
   xmlns:cc="http://creativecommons.org/ns#"
   xmlns:rdf="http://www.w3.org/1999/02/22-rdf-syntax-ns#"
   xmlns:svg="http://www.w3.org/2000/svg"
   xmlns="http://www.w3.org/2000/svg"
   xmlns:sodipodi="http://sodipodi.sourceforge.net/DTD/sodipodi-0.dtd"
   xmlns:inkscape="http://www.inkscape.org/namespaces/inkscape"
   version="1.1"
   width="1024"
   height="1024"
   viewBox="0 0 1024 1024"
   id="svg2"
   inkscape:version="0.91 r13725"
   sodipodi:docname="wish.svg">
  <metadata
     id="metadata15">
    <rdf:RDF>
      <cc:Work
         rdf:about="">
        <dc:format>image/svg+xml</dc:format>
        <dc:type
           rdf:resource="http://purl.org/dc/dcmitype/StillImage" />
      </cc:Work>
    </rdf:RDF>
  </metadata>
  <defs
     id="defs13" />
  <sodipodi:namedview
     pagecolor="#ffffff"
     bordercolor="#666666"
     borderopacity="1"
     objecttolerance="10"
     gridtolerance="10"
     guidetolerance="10"
     inkscape:pageopacity="0"
     inkscape:pageshadow="2"
     inkscape:window-width="1067"
     inkscape:window-height="480"
     id="namedview11"
     showgrid="false"
     inkscape:zoom="0.23046875"
     inkscape:cx="-904.67797"
     inkscape:cy="512"
     inkscape:window-x="314"
     inkscape:window-y="366"
     inkscape:window-maximized="0"
     inkscape:current-layer="svg2" />
  <title
     id="title4" />
  <g
     id="icomoon-ignore" />
  <path
     d="M761.391 704.992c-46.569 0-84.317-37.618-84.317-84.019v-207.518c0-46.406-37.753-84.024-84.322-84.024s-76.046 37.618-76.046 84.024v207.518c0 46.401-46.024 84.019-92.593 84.019s-84.317-37.618-84.317-84.019v-192.647c-0.833-0.461-1.682-0.878-2.515-1.333v-13.537c0-46.406-30.202-84.024-76.772-84.024s-84.317 37.618-84.317 84.024v17.183c0 0 2.515 196.479 12.586 251.73 10.066 55.245 42.789 89.285 85.577 134.487 42.789 45.197-22.652 149.279-108.235 91.519-85.577-57.755-129.007-131.095-143.467-226.006-14.719-96.633-22.652-267.084-22.652-267.084s3.359-61.074 11.247-74.735c31.902-103.103 128.045-178.013 241.709-178.013 65.395 0 124.996 24.801 169.9 65.497 44.898-40.696 104.499-65.497 169.894-65.497 113.664 0 209.807 74.91 241.709 178.013 7.894 13.661 11.247 74.735 11.247 74.735v205.689c0 46.401-37.747 84.019-84.317 84.019z"
     id="path7"
     style="fill:#4d525f;fill-opacity:0.94117647;stroke-width:0.1;stroke-miterlimit:4;stroke-dasharray:none"
     fill="#0072ff" />
  <path
     fill="#94c4ff"
     d="M260.050 324.407c46.569 0 84.322 37.618 84.322 84.019v207.523c0 46.406 37.747 84.024 84.317 84.024s84.317-37.618 84.317-84.024v-207.523c0-46.401 37.753-84.019 84.322-84.019s84.317 37.618 84.317 84.019v192.647c0.833 0.461 1.682 0.883 2.521 1.333v13.543c0 46.406 30.197 84.024 76.766 84.024s84.317-37.618 84.317-84.024v-17.189c0 0-2.515-196.473-12.586-251.724-10.066-55.251-42.789-89.285-85.577-134.487s22.657-149.285 108.235-91.524c85.577 57.755 129.013 131.1 143.467 226.011 14.719 96.633 22.652 267.084 22.652 267.084s-3.353 61.069-11.247 74.735c-31.896 103.098-128.045 178.013-241.709 178.013-65.395 0-124.996-24.807-169.9-65.497-44.898 40.69-104.499 65.497-169.894 65.497-113.664 0-209.807-74.915-241.703-178.013-7.894-13.666-11.253-74.735-11.253-74.735v-205.695c0-46.401 37.747-84.019 84.317-84.019z"
     id="path9"
     style="fill:#ffffff;fill-opacity:1" />
</svg>
